<svg width="31.88" height="32" viewBox="0 0 29 21" fill="none" xmlns="http://www.w3.org/2000/svg">
<path d="M11.5443 9.4563C10.7252 8.63753 9.61445 8.17758 8.4563 8.17758C7.29815 8.17758 6.18741 8.63753 5.3683 9.4563L2.2793 12.5443C1.46018 13.3634 1 14.4744 1 15.6328C1 16.7912 1.46018 17.9022 2.2793 18.7213C3.09842 19.5404 4.20939 20.0006 5.3678 20.0006C6.52621 20.0006 7.63718 19.5404 8.4563 18.7213L10.0003 17.1773" stroke="white" stroke-width="2" stroke-linecap="round" stroke-linejoin="round"/>
<path d="M29 0H27V20H29V0Z" fill="white"/>
<path d="M8.4563 12.5443C9.27541 13.3631 10.3861 13.823 11.5443 13.823C12.7024 13.823 13.8132 13.3631 14.6323 12.5443L17.7213 9.4563C18.5404 8.63718 19.0006 7.52621 19.0006 6.3678C19.0006 5.20939 18.5404 4.09842 17.7213 3.2793C16.9022 2.46018 15.7912 2 14.6328 2C13.4744 2 12.3634 2.46018 11.5443 3.2793L10.0003 4.8233" stroke="white" stroke-width="2" stroke-linecap="round" stroke-linejoin="round"/>
</svg>
