<svg width="30" height="30" viewBox="0 0 32 28" fill="none" xmlns="http://www.w3.org/2000/svg">
<path fill-rule="evenodd" clip-rule="evenodd" d="M11.9292 9.95866H17.8097V12.4253C18.6568 11.0067 20.8292 9.732 24.0924 9.732C30.3482 9.732 31.8333 12.556 31.8333 17.7373V27.3333H25.5V18.9173C25.5 15.9667 24.6529 14.3027 22.4964 14.3027C19.5055 14.3027 18.2626 16.096 18.2626 18.916V27.3333H11.9292V9.95866V9.95866ZM1.06916 27.1067H7.40249V9.732H1.06916V27.1067V27.1067ZM8.30974 4.06666C8.30997 4.5137 8.20469 4.95631 8.00002 5.36878C7.79534 5.78125 7.49536 6.15535 7.11749 6.46933C6.35179 7.11016 5.31536 7.46887 4.23582 7.46666C3.15819 7.46605 2.12415 7.10826 1.35732 6.47066C0.980825 6.15561 0.681851 5.7811 0.477534 5.36857C0.273217 4.95605 0.167573 4.51363 0.166656 4.06666C0.166656 3.164 0.594156 2.3 1.35891 1.66266C2.12506 1.02421 3.15954 0.666265 4.23741 0.666664C5.31724 0.666664 6.35274 1.02533 7.11749 1.66266C7.88066 2.3 8.30974 3.164 8.30974 4.06666Z" fill="white"/>
</svg>
