<svg width="61" height="60" viewBox="0 0 61 60" fill="none" xmlns="http://www.w3.org/2000/svg">
<g clip-path="url(#clip0_1_188)">
<path d="M19.9341 23.3911C19.7741 23.0771 19.4611 22.8711 19.1102 22.8481L10.6978 22.2872C10.2619 22.2442 9.85889 22.5142 9.69987 22.9201L3.63536 38.4189C3.47235 38.8349 3.60536 39.3079 3.96137 39.5788C4.13938 39.7148 4.35336 39.7829 4.56629 39.7829C4.77722 39.7829 4.98828 39.7169 5.16628 39.5829L10.1999 35.8083L13.1307 36.3942C13.6087 36.4892 14.0866 36.2272 14.2606 35.7703C15.8346 31.6476 17.7294 27.8139 19.8902 24.3772C20.0772 24.079 20.0942 23.704 19.9341 23.3911ZM12.6987 34.2682L10.1529 33.7593C9.87495 33.7043 9.58491 33.7703 9.35698 33.9402L6.77818 35.874L11.2948 24.3309L17.3323 24.7329C15.5925 27.6777 14.0386 30.8754 12.6987 34.2682Z" fill="#39AEA9"/>
<path d="M38.5837 50.174L38.0228 41.7606C37.9987 41.4086 37.7927 41.0957 37.4788 40.9357C37.1658 40.7757 36.7908 40.7916 36.4929 40.9796C33.0551 43.1404 29.2224 45.0353 25.0998 46.6091C24.6438 46.7821 24.3798 47.2601 24.4759 47.739L25.0618 50.6699L21.2871 55.7024C21.0191 56.0604 21.0202 56.5524 21.2911 56.9084C21.4841 57.1623 21.7811 57.3033 22.0871 57.3033C22.209 57.3033 22.3321 57.2803 22.452 57.2363L37.9508 51.1718C38.3567 51.013 38.6127 50.6089 38.5837 50.174ZM24.9957 54.0908L26.9295 51.512C27.0996 51.285 27.1656 50.995 27.1095 50.716L26.6006 48.1712C29.9943 46.8313 33.191 45.2774 36.1358 43.5375L36.5388 49.574L24.9957 54.0908Z" fill="#39AEA9"/>
<path d="M29.8684 30.0006H23.1309C22.7679 30.0006 22.4339 30.1975 22.2569 30.5145L13.8005 45.7094C13.5805 46.1054 13.6545 46.6013 13.9805 46.9153C14.1715 47.0993 14.4224 47.1953 14.6745 47.1953C14.8525 47.1953 15.0314 47.1483 15.1914 47.0503L30.3862 37.8551C30.6852 37.6742 30.8682 37.3501 30.8682 37.0002V31.0005C30.8683 30.4486 30.4203 30.0006 29.8684 30.0006ZM28.8685 36.4371L17.3804 43.3896L23.718 32.0014V32.0003H28.8685V36.4371Z" fill="#39AEA9"/>
<path d="M60.8201 0.963728C60.7791 0.476819 60.3932 0.0908069 59.9062 0.0497917C59.5742 0.0237763 26.6458 -2.27507 12.3928 35.0562C12.2519 35.4252 12.3408 35.8411 12.6198 36.1201L17.3744 40.8747C17.5974 41.0977 17.9094 41.1997 18.2224 41.1577C18.5334 41.1127 18.8054 40.9247 18.9574 40.6497L23.721 32.0004H28.8687V36.449L20.1673 41.9426C19.9104 42.1056 19.7414 42.3756 19.7074 42.6776C19.6734 42.9796 19.7793 43.2805 19.9944 43.4956L24.749 48.2502C24.94 48.4412 25.195 48.5431 25.456 48.5431C25.576 48.5431 25.6969 48.5222 25.8129 48.4772C63.1459 34.2232 60.8481 1.29478 60.8201 0.963728ZM55.5745 18.7045C52.0657 27.3857 44.0363 39.1879 25.7028 46.3764L22.293 42.9666L30.4024 37.847C30.6923 37.663 30.8683 37.344 30.8683 37.001V31.0014C30.8683 30.4495 30.4203 30.0015 29.8684 30.0015H23.1289C22.764 30.0015 22.4289 30.2004 22.2529 30.5194L17.8462 38.5208L14.4935 35.167C27.0056 3.24757 53.6756 1.94165 58.8602 2.01466C58.8972 4.34655 58.6832 11.012 55.5745 18.7045Z" fill="#39AEA9"/>
<path d="M17.9992 44.1645C17.7822 43.8766 17.4363 43.7365 17.0972 43.7725C17.1323 43.4325 16.9922 43.0875 16.7053 42.8705C15.1974 41.7306 13.2515 41.3517 11.3647 41.8295C9.36189 42.3385 7.72397 43.7044 6.87203 45.5793L0.960563 58.5853C0.787595 58.9652 0.868571 59.4123 1.16353 59.7062C1.35454 59.8981 1.61048 59.9992 1.87051 59.9992C2.01055 59.9992 2.15153 59.9692 2.28453 59.9092L15.2906 53.9966C17.1644 53.1458 18.5303 51.5078 19.0393 49.505C19.5182 47.6202 19.1392 45.6734 17.9992 44.1645ZM17.1013 49.0131C16.7433 50.424 15.7815 51.5769 14.4636 52.1769L3.88436 56.9855L8.69299 46.4053C9.29193 45.0874 10.4459 44.1255 11.8568 43.7676C12.2278 43.6736 12.6007 43.6275 12.9686 43.6275C13.5916 43.6275 14.2005 43.7605 14.7555 44.0195L13.8036 45.7044C13.5826 46.0954 13.6496 46.5864 13.9675 46.9034C14.2855 47.2223 14.7765 47.2883 15.1665 47.0673L16.8514 46.1143C17.2613 46.9963 17.3543 48.0151 17.1013 49.0131Z" fill="#39AEA9"/>
<path d="M60.8201 0.964816C60.7791 0.477907 60.3931 0.0918949 59.9061 0.0508796C59.5161 0.0198253 50.2468 -0.682121 39.3457 4.33955C39.0487 4.47548 38.8377 4.74947 38.7797 5.07149C38.7216 5.39352 38.8257 5.7234 39.0567 5.95438L54.9155 21.8132C55.1045 22.0022 55.3595 22.1062 55.6225 22.1062C55.6815 22.1062 55.7405 22.1011 55.7995 22.0912C56.1215 22.0332 56.3944 21.8222 56.5314 21.5252C61.554 10.624 60.8521 1.35376 60.8201 0.964816ZM55.2985 19.3664L41.5035 5.57141C49.4839 2.20266 56.4723 1.97063 58.8612 2.0107C58.9012 4.40154 58.6762 11.368 55.2985 19.3664Z" fill="#39AEA9"/>
<path d="M45.0312 15.8387C41.6684 12.4759 36.198 12.4759 32.8352 15.8387C29.4724 19.2015 29.4724 24.6719 32.8352 28.0347C34.5161 29.7166 36.7249 30.5566 38.9327 30.5566C41.1416 30.5566 43.3494 29.7156 45.0312 28.0347C48.394 24.6719 48.394 19.2013 45.0312 15.8387ZM43.6174 26.6208C41.0346 29.2035 36.8319 29.2035 34.2491 26.6208C31.6664 24.038 31.6664 19.8353 34.2491 17.2525C35.5401 15.9616 37.2369 15.3157 38.9329 15.3157C40.6288 15.3157 42.3256 15.9616 43.6175 17.2525C46.2002 19.8353 46.2002 24.038 43.6174 26.6208Z" fill="#39AEA9"/>
<path d="M40.9206 23.925C39.8247 25.0229 38.0409 25.0219 36.9439 23.925C35.8479 22.8282 35.8479 21.0453 36.9439 19.9483C38.0398 18.8524 39.8236 18.8514 40.9206 19.9483C41.3106 20.3392 41.9446 20.3392 42.3345 19.9483C42.7254 19.5574 42.7254 18.9254 42.3345 18.5344C40.4596 16.6586 37.4058 16.6586 35.53 18.5344C33.6541 20.4102 33.6541 23.4631 35.53 25.3389C36.468 26.2768 37.7009 26.7458 38.9328 26.7458C40.1657 26.7458 41.3975 26.2768 42.3345 25.3389C42.7254 24.9479 42.7254 24.3159 42.3345 23.925C41.9445 23.5341 41.3106 23.5341 40.9206 23.925Z" fill="#39AEA9"/>
</g>
<defs>
<clipPath id="clip0_1_188">
<rect width="60" height="60" fill="white" transform="translate(0.870605)"/>
</clipPath>
</defs>
</svg>
