<svg width="20" height="20" viewBox="0 0 42 35" fill="none" xmlns="http://www.w3.org/2000/svg">
<path fill-rule="evenodd" clip-rule="evenodd" d="M4.94819 1.11765C5.40749 0.735472 5.95902 0.438999 6.56623 0.247881C7.17343 0.0567631 7.82244 -0.024636 8.47025 0.00907823C9.11806 0.0427924 9.74988 0.19085 10.3238 0.443439C10.8978 0.696029 11.4008 1.04738 11.7994 1.47422L16.5113 6.51859C17.3749 7.4439 17.6794 8.64922 17.3382 9.78672L15.9023 14.5773C15.8281 14.8255 15.8321 15.0854 15.914 15.3318C15.9958 15.5783 16.1528 15.8029 16.3696 15.9839L22.8192 21.3586C23.0366 21.5396 23.3066 21.6706 23.6029 21.7389C23.8991 21.8071 24.2115 21.8102 24.5097 21.748L30.2558 20.5514C30.9294 20.4111 31.6325 20.4001 32.3119 20.5195C32.9913 20.6389 33.6293 20.8854 34.1776 21.2405L40.2308 25.1648C42.4069 26.5758 42.6064 29.2555 40.6587 30.8764L37.9444 33.1383C36.0019 34.757 33.0987 35.468 30.3923 34.6739C23.4654 32.6429 17.1762 29.3382 11.9911 25.0052C6.79169 20.6849 2.82616 15.4446 0.388561 9.67297C-0.561689 7.41984 0.291436 4.99828 2.23394 3.37953L4.94819 1.11765Z" fill="white"/>
</svg>
